<?xml version="1.0" standalone="no"?>
<!DOCTYPE svg PUBLIC "-//W3C//DTD SVG 20010904//EN"
 "http://www.w3.org/TR/2001/REC-SVG-20010904/DTD/svg10.dtd">
<svg version="1.0" xmlns="http://www.w3.org/2000/svg"
 width="454.000000pt" height="366.000000pt" viewBox="0 0 454.000000 366.000000"
 preserveAspectRatio="xMidYMid meet">

<g transform="translate(0.000000,366.000000) scale(0.100000,-0.100000)"
fill="#000000" stroke="none">
<path d="M1774 3094 c-101 -37 -168 -133 -167 -239 0 -143 105 -247 248 -248
80 0 136 25 188 83 85 94 89 223 12 324 -57 75 -191 114 -281 80z"/>
<path d="M2675 3085 c-14 -13 -25 -35 -25 -49 0 -19 -9 -30 -37 -45 -100 -51
-149 -161 -123 -272 16 -67 94 -151 155 -168 89 -24 172 -8 235 47 128 109
110 303 -35 388 -34 19 -45 32 -45 50 0 33 -42 74 -75 74 -14 0 -37 -11 -50
-25z"/>
<path d="M1426 2384 c-175 -266 -213 -333 -198 -348 3 -4 -9 -21 -26 -39 -18
-18 -37 -49 -42 -68 -6 -19 -10 -189 -10 -397 0 -341 1 -363 18 -360 16 3 17
31 22 378 5 345 7 377 24 403 21 32 23 32 65 11 21 -10 44 -14 63 -10 40 8 57
-7 64 -56 5 -29 11 -38 23 -36 24 5 25 44 1 93 l-21 43 93 143 93 144 5 -530
c5 -574 3 -555 61 -589 55 -33 135 -11 164 44 13 24 15 84 15 365 l0 336 23
-3 22 -3 5 -348 5 -349 33 -29 c53 -48 135 -37 172 23 19 31 20 51 20 338 l0
305 -51 40 c-100 79 -138 153 -139 266 0 70 3 81 33 125 44 66 103 96 180 91
39 -2 66 -10 87 -25 17 -13 30 -19 30 -15 0 8 -134 316 -146 334 -3 6 -23 -6
-44 -25 -71 -64 -115 -81 -210 -81 -98 0 -152 21 -212 80 l-35 35 -187 -286z"/>
<path d="M2425 2474 c-31 -70 -61 -138 -66 -153 l-10 -26 28 26 c70 65 183 64
259 -3 53 -47 64 -76 64 -170 -1 -132 -34 -186 -193 -308 l-85 -65 -23 -120
c-12 -66 -23 -136 -23 -155 -1 -33 1 -35 34 -36 19 -1 40 -2 47 -3 8 -1 12
-40 15 -127 l3 -126 33 -29 c54 -48 140 -37 174 24 7 12 15 74 18 142 4 98 8
120 20 120 12 0 16 -23 20 -128 l5 -129 33 -29 c54 -48 140 -37 174 24 8 13
15 73 18 142 l5 120 42 0 c23 0 44 3 48 6 3 4 -17 136 -45 294 -41 233 -50
304 -48 378 l3 91 89 -137 89 -138 -18 -38 c-17 -39 -18 -97 0 -95 6 1 15 17
20 35 16 54 24 62 57 55 17 -3 45 1 66 9 34 15 37 14 56 -5 20 -20 21 -33 24
-377 3 -344 7 -393 33 -377 13 8 11 696 -2 731 -5 15 -21 39 -33 53 -13 14
-26 41 -29 61 -3 23 -59 117 -162 275 -87 131 -168 255 -181 276 l-23 36 -35
-32 c-113 -107 -289 -107 -403 1 -20 18 -37 33 -38 33 -2 0 -28 -57 -60 -126z"/>
<path d="M976 923 c-11 -11 -6 -23 9 -23 8 0 15 4 15 9 0 13 -16 22 -24 14z"/>
<path d="M2426 922 c-3 -6 -1 -14 5 -17 15 -10 25 3 12 16 -7 7 -13 7 -17 1z"/>
<path d="M2347 913 c-4 -3 -7 -14 -7 -24 0 -9 -6 -19 -12 -22 -10 -4 -10 -7 0
-18 6 -7 12 -37 12 -66 0 -29 5 -53 10 -53 6 0 10 27 10 61 l0 60 33 -3 c32
-3 32 -4 35 -60 4 -83 22 -72 22 13 l0 71 -42 -4 c-37 -2 -43 0 -43 17 0 12 9
22 25 26 24 7 23 7 -6 8 -17 1 -34 -2 -37 -6z"/>
<path d="M3504 910 c-32 -13 -54 -50 -54 -91 0 -67 77 -109 139 -75 32 18 12
28 -27 14 -59 -23 -113 45 -80 101 13 24 20 26 72 25 47 -1 55 1 44 11 -18 18
-69 26 -94 15z"/>
<path d="M3782 828 c2 -62 7 -93 16 -96 9 -3 12 20 12 92 0 80 -3 96 -15 96
-13 0 -15 -15 -13 -92z"/>
<path d="M4332 828 c2 -62 7 -93 16 -96 9 -3 12 20 12 92 0 80 -3 96 -15 96
-13 0 -15 -15 -13 -92z"/>
<path d="M317 829 c-21 -44 -37 -85 -37 -90 0 -19 21 -8 30 16 8 21 16 25 50
25 34 0 42 -4 50 -25 10 -26 31 -35 29 -12 -1 23 -64 160 -75 164 -6 2 -27
-33 -47 -78z m69 -26 c-2 -3 -15 -3 -29 -1 -25 3 -25 4 -11 38 l15 35 15 -34
c8 -19 12 -36 10 -38z"/>
<path d="M1350 899 c0 -6 4 -7 10 -4 5 3 18 1 29 -4 14 -8 22 -7 29 2 9 10 2
13 -29 14 -21 1 -39 -3 -39 -8z"/>
<path d="M1720 820 l0 -90 44 0 c83 0 121 31 93 74 -9 12 -12 35 -9 55 6 42
-7 51 -75 51 l-53 0 0 -90z m107 54 c8 -21 -21 -44 -54 -44 -19 0 -23 5 -23
30 0 28 3 30 35 30 24 0 38 -5 42 -16z m8 -89 c0 -16 -8 -21 -42 -23 -40 -3
-43 -2 -43 23 0 25 3 26 43 23 34 -2 42 -7 42 -23z"/>
<path d="M2903 875 c-6 -14 -7 -25 -2 -25 5 0 9 -18 9 -41 0 -53 15 -79 45
-79 14 0 25 5 25 10 0 6 -9 10 -20 10 -17 0 -20 7 -20 49 0 43 3 50 23 54 l22
4 -22 8 c-13 4 -23 14 -23 21 0 23 -24 16 -37 -11z"/>
<path d="M3833 875 c-6 -14 -7 -25 -2 -25 5 0 9 -18 9 -41 0 -53 15 -79 45
-79 30 0 33 16 5 23 -16 4 -20 14 -20 51 0 40 3 46 21 46 11 0 17 5 14 10 -4
6 -11 8 -16 4 -6 -3 -13 3 -16 15 -7 28 -25 26 -40 -4z"/>
<path d="M470 855 c-19 -23 -7 -47 30 -60 19 -6 35 -18 35 -26 0 -18 -42 -24
-61 -9 -11 10 -14 9 -14 -4 0 -21 45 -31 76 -17 38 17 29 53 -16 67 -45 15
-47 40 -2 38 34 -2 43 10 16 20 -26 10 -51 7 -64 -9z"/>
<path d="M586 854 c-9 -8 -16 -19 -16 -24 0 -13 42 -40 62 -40 12 0 18 -8 18
-21 0 -20 -4 -21 -42 -15 -40 5 -41 5 -24 -9 26 -19 60 -19 80 1 27 26 15 51
-30 63 -16 4 -31 16 -33 26 -3 15 2 17 33 12 36 -6 50 6 20 17 -27 10 -52 7
-68 -10z"/>
<path d="M712 850 c-44 -41 -15 -120 43 -120 31 0 75 41 75 70 0 28 -43 70
-73 70 -13 0 -33 -9 -45 -20z m76 -12 c7 -7 12 -24 12 -38 0 -30 -16 -50 -41
-50 -23 0 -49 27 -49 50 0 39 52 64 78 38z"/>
<path d="M860 850 c-53 -53 4 -141 74 -114 27 10 18 24 -12 18 -19 -4 -34 0
-45 11 -37 36 -6 91 45 81 30 -6 39 8 12 18 -29 11 -54 6 -74 -14z"/>
<path d="M974 857 c-10 -26 0 -120 14 -125 9 -3 12 14 12 62 0 61 -14 95 -26
63z"/>
<path d="M1042 850 c-59 -55 7 -148 79 -110 13 7 19 7 19 0 0 -5 5 -10 10 -10
6 0 10 30 10 71 0 63 -2 70 -15 59 -12 -10 -19 -10 -27 -2 -18 18 -52 14 -76
-8z m80 -17 c22 -20 23 -46 2 -67 -23 -23 -51 -20 -70 9 -15 23 -15 27 0 50
19 29 42 32 68 8z"/>
<path d="M1205 845 c-35 -34 -31 -61 15 -105 36 -35 39 -40 23 -49 -16 -9 -16
-10 5 -11 23 0 29 19 11 37 -7 7 -3 12 15 17 38 9 33 29 -4 21 -38 -8 -60 8
-60 45 0 37 22 53 62 45 31 -6 32 -5 14 10 -28 22 -53 19 -81 -10z"/>
<path d="M1336 849 c-33 -26 -34 -68 -3 -97 25 -23 52 -28 77 -12 9 5 19 5 27
-2 10 -8 13 4 13 62 0 58 -3 70 -13 62 -8 -7 -18 -7 -27 -2 -23 15 -45 12 -74
-11z m78 -15 c32 -31 14 -84 -29 -84 -28 0 -45 19 -45 50 0 47 42 66 74 34z"/>
<path d="M1502 853 c-35 -30 -38 -68 -8 -97 47 -47 116 -24 116 40 0 63 -62
96 -108 57z m72 -19 c30 -30 9 -84 -33 -84 -25 0 -41 20 -41 50 0 47 42 66 74
34z"/>
<path d="M1906 849 c-69 -54 18 -157 90 -105 25 19 12 31 -16 16 -26 -14 -66
-6 -74 15 -4 12 5 15 49 15 48 0 55 2 55 20 0 25 -34 60 -59 60 -10 0 -30 -9
-45 -21z m72 -11 c21 -21 13 -28 -28 -28 -28 0 -40 4 -40 14 0 25 48 34 68 14z"/>
<path d="M2035 859 c-9 -25 -1 -124 10 -124 6 0 11 20 13 45 4 50 16 70 43 70
23 0 39 -36 39 -86 0 -19 5 -34 10 -34 6 0 10 24 10 53 0 42 -5 58 -21 72 -17
16 -24 17 -51 7 -25 -9 -34 -9 -39 0 -6 9 -10 8 -14 -3z"/>
<path d="M2200 850 c-41 -41 -12 -120 44 -120 13 0 34 9 47 21 21 18 21 20 4
14 -42 -16 -66 -17 -80 -5 -27 22 -16 30 40 30 48 0 55 2 55 20 0 28 -35 60
-65 60 -14 0 -34 -9 -45 -20z m78 -12 c21 -21 13 -28 -33 -28 -25 0 -45 4 -45
8 0 15 24 32 45 32 12 0 26 -5 33 -12z"/>
<path d="M2495 845 c-14 -13 -25 -33 -25 -45 0 -28 44 -70 73 -70 14 0 30 7
38 16 11 14 9 15 -23 9 -32 -6 -38 -4 -53 19 -16 24 -16 28 0 52 14 23 21 25
53 20 35 -6 36 -5 18 9 -28 22 -53 19 -81 -10z"/>
<path d="M2622 847 c-28 -30 -28 -68 1 -95 27 -25 65 -28 93 -8 25 19 12 31
-16 16 -26 -14 -66 -6 -74 15 -4 12 5 15 49 15 48 0 55 2 55 20 0 27 -35 60
-63 60 -13 0 -33 -10 -45 -23z m76 -9 c21 -21 13 -28 -28 -28 -28 0 -40 4 -40
14 0 25 48 34 68 14z"/>
<path d="M2755 859 c-9 -25 -1 -124 10 -124 6 0 11 20 13 45 4 50 16 70 43 70
23 0 41 -41 37 -84 -2 -17 2 -31 10 -33 21 -8 16 100 -6 120 -22 20 -53 22
-70 5 -10 -10 -15 -10 -22 2 -8 12 -10 12 -15 -1z"/>
<path d="M3015 845 c-14 -13 -25 -35 -25 -48 0 -30 39 -67 71 -67 29 0 68 25
56 36 -4 4 -13 2 -19 -4 -15 -15 -51 -15 -66 0 -22 22 -13 28 38 28 46 0 50 2
50 24 0 27 -33 56 -63 56 -10 0 -29 -11 -42 -25z m73 -7 c21 -21 13 -28 -28
-28 -22 0 -40 4 -40 8 0 14 23 32 40 32 9 0 21 -5 28 -12z"/>
<path d="M3240 850 c-41 -41 -12 -120 44 -120 13 0 34 9 47 21 21 18 21 20 4
14 -42 -16 -66 -17 -80 -5 -27 22 -16 30 40 30 47 0 55 3 55 18 0 25 -41 62
-68 62 -12 0 -31 -9 -42 -20z m78 -12 c21 -21 13 -28 -33 -28 -25 0 -45 4 -45
8 0 15 24 32 45 32 12 0 26 -5 33 -12z"/>
<path d="M3630 816 c0 -36 5 -60 16 -70 18 -18 60 -21 69 -6 5 8 11 8 20 0 19
-16 23 -3 21 65 -1 70 -19 80 -26 15 -7 -55 -15 -70 -40 -70 -25 0 -40 29 -40
79 0 23 -4 41 -10 41 -5 0 -10 -24 -10 -54z"/>
<path d="M3930 816 c0 -36 5 -60 16 -70 18 -18 60 -21 69 -6 5 8 11 8 20 0 18
-15 21 -5 21 60 -1 68 -19 82 -26 20 -7 -55 -15 -70 -40 -70 -25 0 -40 29 -40
79 0 23 -4 41 -10 41 -5 0 -10 -24 -10 -54z"/>
<path d="M4085 859 c-9 -25 -1 -124 10 -124 6 0 11 22 13 48 3 40 7 49 28 57
25 10 33 30 11 30 -7 0 -19 -6 -25 -12 -10 -10 -15 -10 -22 2 -8 12 -10 12
-15 -1z"/>
<path d="M4185 845 c-30 -30 -31 -54 -4 -89 22 -27 48 -33 79 -16 13 7 21 7
25 0 14 -23 25 4 25 60 0 56 -11 83 -25 60 -4 -7 -12 -7 -25 0 -29 16 -49 12
-75 -15z m79 -11 c32 -31 14 -84 -29 -84 -28 0 -45 19 -45 50 0 47 42 66 74
34z"/>
<path d="M730 515 c-21 -44 -63 -134 -94 -199 -31 -65 -56 -123 -56 -127 0 -5
22 -9 49 -9 45 0 50 2 61 30 l12 30 88 0 88 0 12 -30 c12 -28 16 -30 66 -30
l53 0 -24 53 c-12 28 -56 122 -97 207 -65 135 -78 156 -98 156 -19 0 -30 -14
-60 -81z m99 -182 c1 -9 -13 -13 -39 -13 -46 0 -48 6 -18 63 l21 42 18 -40
c10 -22 18 -46 18 -52z"/>
<path d="M1066 592 c-3 -3 -6 -97 -6 -209 l0 -203 55 0 55 0 0 102 0 103 103
-103 c56 -56 110 -102 120 -102 16 0 17 17 17 204 l0 204 -50 4 -50 3 0 -97
c0 -54 -3 -98 -7 -98 -4 0 -51 44 -105 97 -90 90 -118 110 -132 95z"/>
<path d="M1480 545 l0 -55 55 0 55 0 0 -156 0 -155 53 3 52 3 0 153 0 152 58
0 58 0 -3 53 -3 52 -162 3 -163 2 0 -55z"/>
<path d="M2027 592 c-15 -6 -91 -157 -182 -360 l-24 -52 53 0 c50 0 54 2 66
30 12 30 12 30 97 30 83 0 84 0 101 -30 15 -27 22 -30 65 -30 26 0 47 4 47 8
0 16 -189 407 -197 409 -4 1 -16 -2 -26 -5z m33 -212 c28 -54 26 -60 -20 -60
-22 0 -40 3 -40 7 0 11 32 93 36 93 2 0 13 -18 24 -40z"/>
<path d="M2478 593 c-16 -4 -18 -23 -18 -209 l0 -205 53 3 52 3 0 103 c0 56 2
102 5 102 3 0 29 -21 58 -46 l53 -47 48 47 c25 25 50 46 54 46 4 0 7 -47 7
-105 l0 -105 55 0 55 0 -2 207 c-3 207 -3 208 -25 208 -14 0 -55 -30 -108 -78
l-85 -78 -90 80 c-49 45 -91 80 -92 80 -2 -1 -11 -3 -20 -6z"/>
<path d="M3141 586 c-4 -6 -47 -96 -96 -201 -48 -104 -90 -193 -92 -197 -2 -5
20 -8 50 -8 52 0 56 2 66 30 l10 30 86 0 c85 0 86 0 103 -30 15 -27 22 -30 65
-30 42 0 48 2 43 18 -4 10 -46 103 -95 207 -72 152 -94 189 -111 190 -11 1
-24 -3 -29 -9z m49 -206 c11 -21 20 -44 20 -50 0 -10 -72 -15 -82 -5 -5 5 32
95 39 95 1 0 12 -18 23 -40z"/>
<path d="M3440 388 l0 -208 50 0 50 0 0 55 0 55 39 0 c37 0 41 -3 71 -55 l31
-55 60 0 60 0 -32 58 c-18 31 -37 63 -42 70 -7 9 -4 24 11 51 28 49 29 125 3
164 -35 54 -57 62 -184 67 l-117 5 0 -207z m219 96 c27 -35 26 -50 -4 -80 -20
-20 -33 -25 -68 -22 l-42 3 -3 63 -3 62 50 0 c42 0 53 -4 70 -26z"/>
<path d="M3854 591 c-2 -2 -4 -96 -4 -208 l0 -203 55 0 55 0 -2 206 -3 207
-48 1 c-27 0 -51 -1 -53 -3z"/>
<path d="M4216 591 c-16 -6 -123 -219 -191 -378 l-14 -33 52 0 c49 0 53 2 64
30 l11 30 87 0 c85 0 86 0 103 -30 15 -27 22 -30 65 -30 44 0 48 2 42 20 -12
39 -185 395 -193 397 -4 1 -15 -2 -26 -6z m34 -211 c11 -21 20 -44 20 -50 0
-11 -72 -14 -83 -4 -5 5 32 94 40 94 1 0 12 -18 23 -40z"/>
<path d="M324 556 c-30 -30 -34 -40 -34 -84 0 -63 32 -106 93 -123 51 -15 70
-30 62 -51 -11 -27 -38 -31 -57 -9 -11 15 -28 21 -57 21 -35 0 -41 -3 -41 -21
0 -34 31 -77 68 -95 68 -32 146 1 171 73 26 72 -15 142 -97 165 -35 10 -48 19
-50 35 -5 33 30 48 53 23 13 -14 31 -20 63 -20 43 0 44 1 38 28 -4 15 -22 42
-41 60 -30 27 -42 32 -86 32 -45 0 -55 -4 -85 -34z"/>
</g>
</svg>
